<svg width="862" height="326" viewBox="0 0 862 326" fill="none" xmlns="http://www.w3.org/2000/svg">
<path d="M634.454 31H570.636L632.818 135.727L568.591 240.455H633.227L668.818 178.273H670.454L706.045 240.455H771.091L706.045 135.727L768.636 31H705.227L670.454 91.9546H668.818L634.454 31Z" fill="white"/>
<g filter="url(#filter0_f_102_38)">
<path d="M634.454 33H570.636L632.818 137.727L568.591 242.455H633.227L668.818 180.273H670.454L706.045 242.455H771.091L706.045 137.727L768.636 33H705.227L670.454 93.9546H668.818L634.454 33Z" fill="white"/>
</g>
<g filter="url(#filter1_f_102_38)">
<path d="M634.454 51H570.636L632.818 155.727L568.591 260.455H633.227L668.818 198.273H670.454L706.045 260.455H771.091L706.045 155.727L768.636 51H705.227L670.454 111.955H668.818L634.454 51Z" fill="url(#paint0_linear_102_38)"/>
</g>
<g filter="url(#filter2_f_102_38)">
<path d="M631.586 262.455H537L609.6 160.455H728.602L802 262.455H706.879L670.303 191.14H668.162L631.586 262.455Z" fill="url(#paint1_radial_102_38)"/>
</g>
<g style="mix-blend-mode:lighten">
<g filter="url(#filter3_f_102_38)">
<path d="M669.026 109.455H670.676L696 38.4546C696 38.4546 680.202 54.2195 669.026 53.7841C658.563 53.3766 644 38.4546 644 38.4546L669.026 109.455Z" fill="url(#paint2_radial_102_38)"/>
</g>
<g filter="url(#filter4_f_102_38)">
<path d="M669.026 109.455H670.676L696 38.4546C696 38.4546 680.202 54.2195 669.026 53.7841C658.563 53.3766 644 38.4546 644 38.4546L669.026 109.455Z" fill="url(#paint3_radial_102_38)"/>
</g>
<g filter="url(#filter5_f_102_38)">
<path d="M668.612 94.4546H670.534L707 31.4546C707 31.4546 681.624 54.1461 668.612 53.8284C656.431 53.531 633 31.4546 633 31.4546L668.612 94.4546Z" fill="url(#paint4_radial_102_38)"/>
</g>
<g filter="url(#filter6_f_102_38)">
<path d="M668.612 94.4546H670.534L707 31.4546C707 31.4546 681.624 54.1461 668.612 53.8284C656.431 53.531 633 31.4546 633 31.4546L668.612 94.4546Z" fill="url(#paint5_radial_102_38)"/>
</g>
</g>
<path d="M428.364 30.5454H371.5V240H428.364V30.5454Z" fill="white"/>
<g filter="url(#filter7_f_102_38)">
<path d="M428.364 32.5454H371.5V242H428.364V32.5454Z" fill="white"/>
</g>
<g filter="url(#filter8_f_102_38)">
<path d="M428.364 40.5454H371.5V250H428.364V40.5454Z" fill="url(#paint6_linear_102_38)"/>
</g>
<g filter="url(#filter9_f_102_38)">
<path d="M444 152H356V266H444V152Z" fill="url(#paint7_radial_102_38)"/>
</g>
<path d="M71.5 240.455H128.364V171.318H148L184.818 240.455H246.591L204.045 162.318C226.341 151.58 239.636 131.227 239.636 102.182C239.636 57.5909 208.443 31 161.909 31H71.5V240.455ZM128.364 127.136V76.4091H148.409C168.352 76.4091 180.318 84.1818 180.318 102.182C180.318 120.08 168.352 127.136 148.409 127.136H128.364Z" fill="white"/>
<g filter="url(#filter10_f_102_38)">
<path d="M71.5 242.455H128.364V173.318H148L184.818 242.455H246.591L204.045 164.318C226.341 153.58 239.636 133.227 239.636 104.182C239.636 59.5909 208.443 33 161.909 33H71.5V242.455ZM128.364 129.136V78.4091H148.409C168.352 78.4091 180.318 86.1818 180.318 104.182C180.318 122.08 168.352 129.136 148.409 129.136H128.364Z" fill="white"/>
</g>
<g filter="url(#filter11_f_102_38)">
<path d="M71.5 256.909H128.364V187.773H148L184.818 256.909H246.591L204.045 178.773C226.341 168.034 239.636 147.682 239.636 118.636C239.636 74.0455 208.443 47.4546 161.909 47.4546H71.5V256.909ZM128.364 143.591V92.8636H148.409C168.352 92.8636 180.318 100.636 180.318 118.636C180.318 136.534 168.352 143.591 148.409 143.591H128.364Z" fill="url(#paint8_linear_102_38)"/>
</g>
<g filter="url(#filter12_f_102_38)">
<path fill-rule="evenodd" clip-rule="evenodd" d="M134.629 263.455H60L67 160.455H211.5L259 263.455H188.792L146.946 184.391H134.629V263.455Z" fill="url(#paint9_radial_102_38)"/>
</g>
<g style="mix-blend-mode:lighten">
<g filter="url(#filter13_f_102_38)">
<path d="M124 139.455V79.4546H147.535C170.951 79.4546 185 88.6481 185 109.938C185 131.108 170.951 139.455 147.535 139.455H124Z" fill="url(#paint10_radial_102_38)"/>
</g>
<g filter="url(#filter14_f_102_38)">
<path d="M124 139.455V79.4546H147.535C170.951 79.4546 185 88.6481 185 109.938C185 131.108 170.951 139.455 147.535 139.455H124Z" fill="url(#paint11_radial_102_38)"/>
</g>
<g filter="url(#filter15_f_102_38)">
<path d="M124 118.455V67.4546H146.764C169.411 67.4546 183 75.2691 183 93.3658C183 111.36 169.411 118.455 146.764 118.455H124Z" fill="url(#paint12_radial_102_38)"/>
</g>
<g filter="url(#filter16_f_102_38)">
<path d="M124 118.455V67.4546H146.764C169.411 67.4546 183 75.2691 183 93.3658C183 111.36 169.411 118.455 146.764 118.455H124Z" fill="url(#paint13_radial_102_38)"/>
</g>
</g>
<defs>
<filter id="filter0_f_102_38" x="564.591" y="29" width="210.5" height="217.455" filterUnits="userSpaceOnUse" color-interpolation-filters="sRGB">
<feFlood flood-opacity="0" result="BackgroundImageFix"/>
<feBlend mode="normal" in="SourceGraphic" in2="BackgroundImageFix" result="shape"/>
<feGaussianBlur stdDeviation="2" result="effect1_foregroundBlur_102_38"/>
</filter>
<filter id="filter1_f_102_38" x="528.591" y="11" width="282.5" height="289.455" filterUnits="userSpaceOnUse" color-interpolation-filters="sRGB">
<feFlood flood-opacity="0" result="BackgroundImageFix"/>
<feBlend mode="normal" in="SourceGraphic" in2="BackgroundImageFix" result="shape"/>
<feGaussianBlur stdDeviation="20" result="effect1_foregroundBlur_102_38"/>
</filter>
<filter id="filter2_f_102_38" x="477" y="100.455" width="385" height="222" filterUnits="userSpaceOnUse" color-interpolation-filters="sRGB">
<feFlood flood-opacity="0" result="BackgroundImageFix"/>
<feBlend mode="normal" in="SourceGraphic" in2="BackgroundImageFix" result="shape"/>
<feGaussianBlur stdDeviation="30" result="effect1_foregroundBlur_102_38"/>
</filter>
<filter id="filter3_f_102_38" x="624" y="18.4546" width="92" height="111" filterUnits="userSpaceOnUse" color-interpolation-filters="sRGB">
<feFlood flood-opacity="0" result="BackgroundImageFix"/>
<feBlend mode="normal" in="SourceGraphic" in2="BackgroundImageFix" result="shape"/>
<feGaussianBlur stdDeviation="10" result="effect1_foregroundBlur_102_38"/>
</filter>
<filter id="filter4_f_102_38" x="624" y="18.4546" width="92" height="111" filterUnits="userSpaceOnUse" color-interpolation-filters="sRGB">
<feFlood flood-opacity="0" result="BackgroundImageFix"/>
<feBlend mode="normal" in="SourceGraphic" in2="BackgroundImageFix" result="shape"/>
<feGaussianBlur stdDeviation="10" result="effect1_foregroundBlur_102_38"/>
</filter>
<filter id="filter5_f_102_38" x="613" y="11.4546" width="114" height="103" filterUnits="userSpaceOnUse" color-interpolation-filters="sRGB">
<feFlood flood-opacity="0" result="BackgroundImageFix"/>
<feBlend mode="normal" in="SourceGraphic" in2="BackgroundImageFix" result="shape"/>
<feGaussianBlur stdDeviation="10" result="effect1_foregroundBlur_102_38"/>
</filter>
<filter id="filter6_f_102_38" x="613" y="11.4546" width="114" height="103" filterUnits="userSpaceOnUse" color-interpolation-filters="sRGB">
<feFlood flood-opacity="0" result="BackgroundImageFix"/>
<feBlend mode="normal" in="SourceGraphic" in2="BackgroundImageFix" result="shape"/>
<feGaussianBlur stdDeviation="10" result="effect1_foregroundBlur_102_38"/>
</filter>
<filter id="filter7_f_102_38" x="367.5" y="28.5454" width="64.8635" height="217.455" filterUnits="userSpaceOnUse" color-interpolation-filters="sRGB">
<feFlood flood-opacity="0" result="BackgroundImageFix"/>
<feBlend mode="normal" in="SourceGraphic" in2="BackgroundImageFix" result="shape"/>
<feGaussianBlur stdDeviation="2" result="effect1_foregroundBlur_102_38"/>
</filter>
<filter id="filter8_f_102_38" x="331.5" y="0.545441" width="136.864" height="289.455" filterUnits="userSpaceOnUse" color-interpolation-filters="sRGB">
<feFlood flood-opacity="0" result="BackgroundImageFix"/>
<feBlend mode="normal" in="SourceGraphic" in2="BackgroundImageFix" result="shape"/>
<feGaussianBlur stdDeviation="20" result="effect1_foregroundBlur_102_38"/>
</filter>
<filter id="filter9_f_102_38" x="296" y="92" width="208" height="234" filterUnits="userSpaceOnUse" color-interpolation-filters="sRGB">
<feFlood flood-opacity="0" result="BackgroundImageFix"/>
<feBlend mode="normal" in="SourceGraphic" in2="BackgroundImageFix" result="shape"/>
<feGaussianBlur stdDeviation="30" result="effect1_foregroundBlur_102_38"/>
</filter>
<filter id="filter10_f_102_38" x="67.5" y="29" width="183.091" height="217.455" filterUnits="userSpaceOnUse" color-interpolation-filters="sRGB">
<feFlood flood-opacity="0" result="BackgroundImageFix"/>
<feBlend mode="normal" in="SourceGraphic" in2="BackgroundImageFix" result="shape"/>
<feGaussianBlur stdDeviation="2" result="effect1_foregroundBlur_102_38"/>
</filter>
<filter id="filter11_f_102_38" x="31.5" y="7.45456" width="255.091" height="289.455" filterUnits="userSpaceOnUse" color-interpolation-filters="sRGB">
<feFlood flood-opacity="0" result="BackgroundImageFix"/>
<feBlend mode="normal" in="SourceGraphic" in2="BackgroundImageFix" result="shape"/>
<feGaussianBlur stdDeviation="20" result="effect1_foregroundBlur_102_38"/>
</filter>
<filter id="filter12_f_102_38" x="0" y="100.455" width="319" height="223" filterUnits="userSpaceOnUse" color-interpolation-filters="sRGB">
<feFlood flood-opacity="0" result="BackgroundImageFix"/>
<feBlend mode="normal" in="SourceGraphic" in2="BackgroundImageFix" result="shape"/>
<feGaussianBlur stdDeviation="30" result="effect1_foregroundBlur_102_38"/>
</filter>
<filter id="filter13_f_102_38" x="104" y="59.4546" width="101" height="100" filterUnits="userSpaceOnUse" color-interpolation-filters="sRGB">
<feFlood flood-opacity="0" result="BackgroundImageFix"/>
<feBlend mode="normal" in="SourceGraphic" in2="BackgroundImageFix" result="shape"/>
<feGaussianBlur stdDeviation="10" result="effect1_foregroundBlur_102_38"/>
</filter>
<filter id="filter14_f_102_38" x="104" y="59.4546" width="101" height="100" filterUnits="userSpaceOnUse" color-interpolation-filters="sRGB">
<feFlood flood-opacity="0" result="BackgroundImageFix"/>
<feBlend mode="normal" in="SourceGraphic" in2="BackgroundImageFix" result="shape"/>
<feGaussianBlur stdDeviation="10" result="effect1_foregroundBlur_102_38"/>
</filter>
<filter id="filter15_f_102_38" x="104" y="47.4546" width="99" height="91" filterUnits="userSpaceOnUse" color-interpolation-filters="sRGB">
<feFlood flood-opacity="0" result="BackgroundImageFix"/>
<feBlend mode="normal" in="SourceGraphic" in2="BackgroundImageFix" result="shape"/>
<feGaussianBlur stdDeviation="10" result="effect1_foregroundBlur_102_38"/>
</filter>
<filter id="filter16_f_102_38" x="104" y="47.4546" width="99" height="91" filterUnits="userSpaceOnUse" color-interpolation-filters="sRGB">
<feFlood flood-opacity="0" result="BackgroundImageFix"/>
<feBlend mode="normal" in="SourceGraphic" in2="BackgroundImageFix" result="shape"/>
<feGaussianBlur stdDeviation="10" result="effect1_foregroundBlur_102_38"/>
</filter>
<linearGradient id="paint0_linear_102_38" x1="669.841" y1="148" x2="669.841" y2="260.455" gradientUnits="userSpaceOnUse">
<stop stop-color="white" stop-opacity="0"/>
<stop offset="1" stop-color="#0011B1"/>
</linearGradient>
<radialGradient id="paint1_radial_102_38" cx="0" cy="0" r="1" gradientUnits="userSpaceOnUse" gradientTransform="translate(668.327 157.955) rotate(90) scale(104.5 220.564)">
<stop offset="0.479167" stop-color="white" stop-opacity="0"/>
<stop offset="0.729167" stop-color="#DB00FF"/>
<stop offset="0.84375" stop-color="#FF00F5"/>
<stop offset="1" stop-color="#00FFC2" stop-opacity="0"/>
</radialGradient>
<radialGradient id="paint2_radial_102_38" cx="0" cy="0" r="1" gradientUnits="userSpaceOnUse" gradientTransform="translate(669.861 54.7273) rotate(90.1953) scale(55.1165 51.2378)">
<stop offset="0.302083" stop-color="white"/>
<stop offset="0.614583" stop-color="#FFC736"/>
<stop offset="0.786458" stop-color="#FFA723"/>
<stop offset="0.932292" stop-color="#FF0000"/>
</radialGradient>
<radialGradient id="paint3_radial_102_38" cx="0" cy="0" r="1" gradientUnits="userSpaceOnUse" gradientTransform="translate(669.861 54.7273) rotate(90.1953) scale(55.1165 51.2378)">
<stop offset="0.302083" stop-color="white"/>
<stop offset="0.614583" stop-color="#FFC736"/>
<stop offset="0.786458" stop-color="#FFA723"/>
<stop offset="0.932292" stop-color="#FF0000"/>
</radialGradient>
<radialGradient id="paint4_radial_102_38" cx="0" cy="0" r="1" gradientUnits="userSpaceOnUse" gradientTransform="translate(669.802 79.8557) rotate(-90.36) scale(42.5358 69.2744)">
<stop offset="0.442708" stop-color="white" stop-opacity="0.77"/>
<stop offset="0.5625" stop-color="#06FFC3"/>
<stop offset="0.6875" stop-color="#00A3FF"/>
<stop offset="0.880208" stop-color="#001AFF"/>
<stop offset="1" stop-color="#FF00F5"/>
</radialGradient>
<radialGradient id="paint5_radial_102_38" cx="0" cy="0" r="1" gradientUnits="userSpaceOnUse" gradientTransform="translate(669.802 79.8557) rotate(-90.36) scale(42.5358 69.2744)">
<stop offset="0.442708" stop-color="white" stop-opacity="0.77"/>
<stop offset="0.5625" stop-color="#06FFC3"/>
<stop offset="0.6875" stop-color="#00A3FF"/>
<stop offset="0.880208" stop-color="#001AFF"/>
<stop offset="1" stop-color="#FF00F5"/>
</radialGradient>
<linearGradient id="paint6_linear_102_38" x1="399.932" y1="137.545" x2="399.932" y2="250" gradientUnits="userSpaceOnUse">
<stop stop-color="white" stop-opacity="0"/>
<stop offset="1" stop-color="#0011B1"/>
</linearGradient>
<radialGradient id="paint7_radial_102_38" cx="0" cy="0" r="1" gradientUnits="userSpaceOnUse" gradientTransform="translate(399.611 149.206) rotate(90) scale(116.794 73.2437)">
<stop offset="0.479167" stop-color="white" stop-opacity="0"/>
<stop offset="0.729167" stop-color="#DB00FF"/>
<stop offset="0.84375" stop-color="#FF00F5"/>
<stop offset="1" stop-color="#00FFC2" stop-opacity="0"/>
</radialGradient>
<linearGradient id="paint8_linear_102_38" x1="159.045" y1="144.455" x2="159.045" y2="256.909" gradientUnits="userSpaceOnUse">
<stop stop-color="white" stop-opacity="0"/>
<stop offset="1" stop-color="#0011B1"/>
</linearGradient>
<radialGradient id="paint9_radial_102_38" cx="0" cy="0" r="1" gradientUnits="userSpaceOnUse" gradientTransform="translate(158.619 157.93) rotate(90) scale(105.525 165.631)">
<stop offset="0.479167" stop-color="white" stop-opacity="0"/>
<stop offset="0.729167" stop-color="#DB00FF"/>
<stop offset="0.84375" stop-color="#FF00F5"/>
<stop offset="1" stop-color="#00FFC2" stop-opacity="0"/>
</radialGradient>
<radialGradient id="paint10_radial_102_38" cx="0" cy="0" r="1" gradientUnits="userSpaceOnUse" gradientTransform="translate(154.337 93.2061) rotate(90.271) scale(46.5776 60.1055)">
<stop offset="0.302083" stop-color="white"/>
<stop offset="0.614583" stop-color="#FFC736"/>
<stop offset="0.786458" stop-color="#FFA723"/>
<stop offset="0.932292" stop-color="#FF0000"/>
</radialGradient>
<radialGradient id="paint11_radial_102_38" cx="0" cy="0" r="1" gradientUnits="userSpaceOnUse" gradientTransform="translate(154.337 93.2061) rotate(90.271) scale(46.5776 60.1055)">
<stop offset="0.302083" stop-color="white"/>
<stop offset="0.614583" stop-color="#FFC736"/>
<stop offset="0.786458" stop-color="#FFA723"/>
<stop offset="0.932292" stop-color="#FF0000"/>
</radialGradient>
<radialGradient id="paint12_radial_102_38" cx="0" cy="0" r="1" gradientUnits="userSpaceOnUse" gradientTransform="translate(153.342 106.636) rotate(-90.3546) scale(34.4337 55.2324)">
<stop offset="0.442708" stop-color="white" stop-opacity="0.77"/>
<stop offset="0.5625" stop-color="#06FFC3"/>
<stop offset="0.6875" stop-color="#00A3FF"/>
<stop offset="0.880208" stop-color="#001AFF"/>
<stop offset="1" stop-color="#FF00F5"/>
</radialGradient>
<radialGradient id="paint13_radial_102_38" cx="0" cy="0" r="1" gradientUnits="userSpaceOnUse" gradientTransform="translate(153.342 106.636) rotate(-90.3546) scale(34.4337 55.2324)">
<stop offset="0.442708" stop-color="white" stop-opacity="0.77"/>
<stop offset="0.5625" stop-color="#06FFC3"/>
<stop offset="0.6875" stop-color="#00A3FF"/>
<stop offset="0.880208" stop-color="#001AFF"/>
<stop offset="1" stop-color="#FF00F5"/>
</radialGradient>
</defs>
</svg>
